<svg width="18" height="11" viewBox="0 0 18 11" fill="none" xmlns="http://www.w3.org/2000/svg">
<path d="M17.6998 2.32485L9.57481 10.4498C9.49935 10.5254 9.40974 10.5853 9.3111 10.6262C9.21247 10.6671 9.10674 10.6881 8.99996 10.6881C8.89319 10.6881 8.78746 10.6671 8.68882 10.6262C8.59019 10.5853 8.50058 10.5254 8.42512 10.4498L0.30012 2.32485C0.147662 2.17239 0.0620117 1.96561 0.0620117 1.75C0.0620117 1.53439 0.147662 1.32762 0.30012 1.17516C0.452578 1.0227 0.659355 0.93705 0.874964 0.93705C1.09057 0.93705 1.29735 1.0227 1.44981 1.17516L8.99996 8.72633L16.5501 1.17516C16.6256 1.09967 16.7152 1.03979 16.8139 0.998932C16.9125 0.958077 17.0182 0.93705 17.125 0.93705C17.2317 0.93705 17.3374 0.958077 17.4361 0.998932C17.5347 1.03979 17.6243 1.09967 17.6998 1.17516C17.7753 1.25065 17.8352 1.34027 17.876 1.4389C17.9169 1.53753 17.9379 1.64324 17.9379 1.75C17.9379 1.85676 17.9169 1.96247 17.876 2.06111C17.8352 2.15974 17.7753 2.24936 17.6998 2.32485Z" fill="#FBFCFB"/>
</svg>
