<svg width="28" height="28" viewBox="0 0 28 28" fill="none" xmlns="http://www.w3.org/2000/svg">
<path d="M27.5 17.25V26.25C27.5 26.5484 27.3815 26.8345 27.1705 27.0455C26.9595 27.2565 26.6734 27.375 26.375 27.375H1.625C1.32663 27.375 1.04048 27.2565 0.829505 27.0455C0.618527 26.8345 0.5 26.5484 0.5 26.25V17.25C0.5 16.9516 0.618527 16.6655 0.829505 16.4545C1.04048 16.2435 1.32663 16.125 1.625 16.125C1.92337 16.125 2.20952 16.2435 2.42049 16.4545C2.63147 16.6655 2.75 16.9516 2.75 17.25V25.125H25.25V17.25C25.25 16.9516 25.3685 16.6655 25.5795 16.4545C25.7905 16.2435 26.0766 16.125 26.375 16.125C26.6734 16.125 26.9595 16.2435 27.1705 16.4545C27.3815 16.6655 27.5 16.9516 27.5 17.25ZM13.2041 18.0459C13.3085 18.1505 13.4326 18.2335 13.5692 18.2901C13.7058 18.3467 13.8522 18.3759 14 18.3759C14.1478 18.3759 14.2942 18.3467 14.4308 18.2901C14.5674 18.2335 14.6915 18.1505 14.7959 18.0459L20.4209 12.4209C20.5255 12.3164 20.6084 12.1923 20.6649 12.0558C20.7215 11.9192 20.7506 11.7728 20.7506 11.625C20.7506 11.4772 20.7215 11.3308 20.6649 11.1942C20.6084 11.0577 20.5255 10.9336 20.4209 10.8291C20.3164 10.7245 20.1923 10.6416 20.0558 10.5851C19.9192 10.5285 19.7728 10.4994 19.625 10.4994C19.4772 10.4994 19.3308 10.5285 19.1942 10.5851C19.0577 10.6416 18.9336 10.7245 18.8291 10.8291L15.125 14.5345V1.5C15.125 1.20163 15.0065 0.915483 14.7955 0.704505C14.5845 0.493526 14.2984 0.375 14 0.375C13.7016 0.375 13.4155 0.493526 13.2045 0.704505C12.9935 0.915483 12.875 1.20163 12.875 1.5V14.5345L9.17094 10.8291C8.95984 10.618 8.67353 10.4994 8.375 10.4994C8.07647 10.4994 7.79016 10.618 7.57906 10.8291C7.36797 11.0402 7.24937 11.3265 7.24937 11.625C7.24937 11.9235 7.36797 12.2098 7.57906 12.4209L13.2041 18.0459Z" fill="#FBFCFB"/>
</svg>
