<svg width="78" height="78" viewBox="0 0 78 78" fill="none" xmlns="http://www.w3.org/2000/svg">
<rect x="17.2305" y="19.9536" width="37.186" height="33.5581" fill="#D9D9D9"/>
<path d="M70.0412 22.62C69.4197 19.1893 66.4581 16.6908 63.0212 15.9108C57.8781 14.82 48.3597 14.04 38.0612 14.04C27.7689 14.04 18.0981 14.82 12.9489 15.9108C9.51812 16.6908 6.55047 19.0308 5.9289 22.62C5.30125 26.52 4.67969 31.98 4.67969 39C4.67969 46.02 5.30125 51.48 6.08125 55.38C6.7089 58.8108 9.67047 61.3093 13.1013 62.0893C18.5613 63.18 27.9213 63.96 38.2197 63.96C48.5181 63.96 57.8781 63.18 63.3381 62.0893C66.7689 61.3093 69.7305 58.9693 70.3581 55.38C70.9797 51.48 71.7597 45.8616 71.9181 39C71.6012 31.98 70.8212 26.52 70.0412 22.62ZM29.6397 49.92V28.08L48.6705 39L29.6397 49.92Z" fill="#E42C2C"/>
</svg>
